#!OML:ASF H:\LiuWeirdWalks\Patient Classification 1\Patient 1\Session 1\male.ASF
:FULLY-SPECIFIED
:DEGREES
397
root -0.159419 18.0194 -10.1269 6.65533 10.1683 -4.46796
lowerback 18.1042 -2.40844 -8.91482
upperback 1.4423 -4.83778 1.31789
thorax -7.71064 -2.01281 7.65682
lowerneck -14.3662 2.15435 8.3051
upperneck 14.4312 1.32375 -1.1674
head 6.8525 0.992138 -1.59614
rclavicle 5.96354e-015 1.27222e-014
rhumerus -50.7171 -3.94125 -71.6294
rradius 49.5216
rwrist -15.5442
rhand -15.6942 -4.36234
rfingers 7.12502
rthumb 10.4952 -34.0803
lclavicle 5.96354e-015 1.27222e-014
lhumerus -15.7811 -9.91774 83.1808
lradius 57.394
lwrist 2.26826
lhand -23.1397 -14.4015
lfingers 7.12502
lthumb 3.30818 15.5526
rfemur -48.5302 -12.3706 15.2752
rtibia 63.3993
rfoot -5.77013 -9.80964
rtoes -10.3245
lfemur -20.2172 4.99569 -20.4457
ltibia 43.3918
lfoot -11.719 5.09549
ltoes -16.6751
398
root -0.179444 18.0044 -10.0349 7.05142 10.8881 -4.32689
lowerback 18.1333 -2.47387 -8.97236
upperback 1.41791 -4.93896 1.3102
thorax -7.73008 -2.05714 7.70626
lowerneck -14.5504 2.0214 8.1973
upperneck 14.2216 1.12452 -1.0058
head 6.80494 0.899453 -1.54493
rclavicle 0 1.59028e-015
rhumerus -50.671 -4.32129 -71.12
rradius 49.4819
rwrist -15.8218
rhand -15.6483 -4.35014
rfingers 7.12502
rthumb 10.5395 -34.0659
lclavicle 0 1.59028e-015
lhumerus -15.3488 -10.1578 83.7227
lradius 58.1001
lwrist 2.63461
lhand -23.0715 -14.495
lfingers 7.12502
lthumb 3.37404 15.458
rfemur -49.0536 -12.5322 15.0476
rtibia 64.0483
rfoot -5.32382 -10.2327
rtoes -9.77295
lfemur -20.6137 4.50591 -20.5932
ltibia 43.8651
lfoot -11.6724 5.6133
ltoes -17.022
399
root -0.199397 17.9839 -9.9432 7.46125 11.5837 -4.18186
lowerback 18.151 -2.53226 -9.03458
upperback 1.39576 -5.03052 1.3047
thorax -7.74185 -2.09723 7.75761
lowerneck -14.7394 1.88931 8.07735
upperneck 13.9966 0.929019 -0.839256
head 6.75379 0.807937 -1.48984
rclavicle -8.74653e-015 -4.77083e-014
rhumerus -50.5702 -4.68555 -70.6103
rradius 49.4288
rwrist -16.0964
rhand -15.6196 -4.33916
rfingers 7.12502
rthumb 10.5671 -34.0535
lclavicle -8.74653e-015 -4.77083e-014
lhumerus -14.9435 -10.3888 84.244
lradius 58.8732
lwrist 2.97865
lhand -23.0368 -14.6014
lfingers 7.12502
lthumb 3.40755 15.3511
rfemur -49.5364 -12.6716 14.8322
rtibia 64.6966
rfoot -4.97929 -10.6055
rtoes -9.32947
lfemur -21.0801 3.91766 -20.7344
ltibia 44.4558
lfoot -11.6394 6.21681
ltoes -17.3334
400
root -0.219262 17.9581 -9.85154 7.8784 12.251 -4.0381
lowerback 18.1611 -2.58253 -9.09757
upperback 1.37534 -5.11061 1.30152
thorax -7.74929 -2.13208 7.80874
lowerneck -14.9273 1.75709 7.9466
upperneck 13.7587 0.736114 -0.666749
head 6.69888 0.717285 -1.4309
rclavicle -3.18055e-015 -2.22639e-014
rhumerus -50.4187 -5.0337 -70.1001
rradius 49.3677
rwrist -16.3635
rhand -15.6193 -4.31661
rfingers 7.12502
rthumb 10.5674 -34.0309
lclavicle -3.18055e-015 -2.22639e-014
lhumerus -14.5569 -10.6082 84.7386
lradius 59.6978
lwrist 3.27997
lhand -23.0282 -14.7086
lfingers 7.12502
lthumb 3.41585 15.2438
rfemur -49.9717 -12.7786 14.6314
rtibia 65.3311
rfoot -4.75875 -10.9231
rtoes -9.00789
lfemur -21.6019 3.2382 -20.8581
ltibia 45.15
lfoot -11.6272 6.88563
ltoes -17.622
401
root -0.239005 17.9269 -9.75985 8.29586 12.8829 -3.90155
lowerback 18.1662 -2.62281 -9.15783
upperback 1.35674 -5.17631 1.30062
thorax -7.75459 -2.16027 7.85722
lowerneck -15.1137 1.62717 7.81532
upperneck 13.5135 0.547967 -0.49509
head 6.6422 0.628632 -1.37178
rclavicle 3.57812e-014 -1.59028e-015
rhumerus -50.2174 -5.36699 -69.5893
rradius 49.3018
rwrist -16.6141
rhand -15.656 -4.27667
rfingers 7.12502
rthumb 10.532 -33.9928
lclavicle 3.57812e-014 -1.59028e-015
lhumerus -14.1803 -10.8145 85.1998
lradius 60.5597
lwrist 3.5256
lhand -23.0349 -14.7975
lfingers 7.12502
lthumb 3.40941 15.155
rfemur -50.3553 -12.8398 14.4475
rtibia 65.9414
rfoot -4.66471 -11.1841
rtoes -8.80815
lfemur -22.1642 2.48838 -20.9546
ltibia 45.9345
lfoot -11.6401 7.59692
ltoes -17.9072
402
root -0.258519 17.8905 -9.668 8.70726 13.471 -3.77706
lowerback 18.1681 -2.65068 -9.21216
upperback 1.33944 -5.22407 1.301
thorax -7.76054 -2.18 7.89963
lowerneck -15.2957 1.50102 7.6923
upperneck 13.2637 0.365699 -0.329485
head 6.58412 0.542577 -1.31547
rclavicle -7.23576e-014 9.54166e-015
rhumerus -49.9688 -5.68869 -69.0765
rradius 49.233
rwrist -16.8364
rhand -15.7337 -4.21808
rfingers 7.12502
rthumb 10.4571 -33.938
lclavicle -7.23576e-014 9.54166e-015
lhumerus -13.8099 -11.0084 85.6215
lradius 61.4478
lwrist 3.7147
lhand -23.0549 -14.856
lfingers 7.12502
lthumb 3.39012 15.0968
rfemur -50.6864 -12.8422 14.2811
rtibia 66.5203
rfoot -4.68009 -11.39
rtoes -8.72008
lfemur -22.7538 1.70076 -21.0187
ltibia 46.7983
lfoot -11.6795 8.32665
ltoes -18.2115
403
root -0.277682 17.8492 -9.57581 9.10689 14.0057 -3.66842
lowerback 18.1677 -2.66423 -9.25905
upperback 1.32349 -5.25126 1.30133
thorax -7.76836 -2.19 7.93315
lowerneck -15.4755 1.38313 7.59043
upperneck 13.0111 0.193797 -0.179923
head 6.52576 0.461106 -1.26681
rclavicle -1.09332e-013 1.59028e-014
rhumerus -49.6742 -5.99989 -68.5617
rradius 49.1661
rwrist -17.0199
rhand -15.851 -4.14637
rfingers 7.12502
rthumb 10.3439 -33.872
lclavicle -1.09332e-013 1.59028e-014
lhumerus -13.4423 -11.191 85.9959
lradius 62.3519
lwrist 3.85731
lhand -23.09 -14.8799
lfingers 7.12502
lthumb 3.35614 15.0734
rfemur -50.9663 -12.7733 14.1314
rtibia 67.0641
rfoot -4.77461 -11.5455
rtoes -8.72708
lfemur -23.3612 0.916292 -21.0489
ltibia 47.7337
lfoot -11.7415 9.05088
ltoes -18.5532
404
root -0.296399 17.8031 -9.48303 9.48893 14.4779 -3.57861
lowerback 18.1659 -2.66149 -9.29813
upperback 1.30879 -5.25549 1.29973
thorax -7.77938 -2.18906 7.95511
lowerneck -15.6526 1.27595 7.51362
upperneck 12.7597 0.0346851 -0.0479269
head 6.46831 0.385525 -1.22665
rclavicle -7.99114e-014 6.36111e-015
rhumerus -49.3366 -6.30157 -68.0442
rradius 49.1078
rwrist -17.1564
rhand -16.0011 -4.06781
rfingers 7.12502
rthumb 10.1991 -33.8006
lclavicle -7.99114e-014 6.36111e-015
lhumerus -13.0766 -11.365 86.3146
lradius 63.2615
lwrist 3.97187
lhand -23.1481 -14.8762
lfingers 7.12502
lthumb 3.30005 15.078
rfemur -51.1964 -12.6238 13.9967
rtibia 67.572
rfoot -4.9154 -11.6574
rtoes -8.81134
lfemur -23.9787 0.182067 -21.0462
ltibia 48.7359
lfoot -11.8193 9.74466
ltoes -18.9441
405
root -0.314698 17.7526 -9.38932 9.84795 14.8796 -3.51004
lowerback 18.1634 -2.64117 -9.33051
upperback 1.29526 -5.23553 1.29438
thorax -7.79456 -2.17651 7.96397
lowerneck -15.825 1.18206 7.4662
upperneck 12.511 -0.108832 0.0641125
head 6.41187 0.317195 -1.19616
rclavicle -6.0033e-014 1.11319e-014
rhumerus -48.9613 -6.59332 -67.5237
rradius 49.0692
rwrist -17.2416
rhand -16.1711 -3.98367
rfingers 7.12502
rthumb 10.035 -33.7244
lclavicle -6.0033e-014 1.11319e-014
lhumerus -12.7148 -11.5348 86.5675
lradius 64.1678
lwrist 4.0793
lhand -23.2395 -14.8558
lfingers 7.12502
lthumb 3.21184 15.0998
rfemur -51.3783 -12.3887 13.8769
rtibia 68.0461
rfoot -5.07729 -11.735
rtoes -8.95705
lfemur -24.6004 -0.455662 -21.0123
ltibia 49.8012
lfoot -11.9059 10.3826
ltoes -19.3918
406
root -0.332776 17.6982 -9.2943 10.1785 15.2059 -3.46615
lowerback 18.1614 -2.60299 -9.3585
upperback 1.28283 -5.19161 1.28474
thorax -7.81434 -2.15237 7.96056
lowerneck -15.991 1.10272 7.44665
upperneck 12.2684 -0.235225 0.158481
head 6.35714 0.257026 -1.17419
rclavicle 2.10712e-014 1.59028e-014
rhumerus -48.5533 -6.87271 -66.9998
rradius 49.0644
rwrist -17.2758
rhand -16.3455 -3.89357
rfingers 7.12502
rthumb 9.86679 -33.6424
lclavicle 2.10712e-014 1.59028e-014
lhumerus -12.3601 -11.7039 86.7436
lradius 65.0638
lwrist 4.19697
lhand -23.3695 -14.828
lfingers 7.12502
lthumb 3.08625 15.1295
rfemur -51.5136 -12.0696 13.7759
rtibia 68.4912
rfoot -5.25025 -11.7904
rtoes -9.14786
lfemur -25.2197 -0.957147 -20.9463
ltibia 50.9239
lfoot -11.9976 10.9379
ltoes -19.9001
